<mxfile host="app.diagrams.net" modified="2023-11-20T20:26:48.935Z" agent="Mozilla/5.0 (Macintosh; Intel Mac OS X 10_15_7) AppleWebKit/537.36 (KHTML, like Gecko) Chrome/119.0.0.0 Safari/537.36" version="21.6.6" etag="AQJg4c1JcT7sHvLabId-" type="github">
  <diagram name="Page-1" id="LIiMVtCIVscYwwvzTVr_">
    <mxGraphModel>
      <root>
        <mxCell id="0" />
        <mxCell id="1" parent="0" />
      </root>
    </mxGraphModel>
  </diagram>
</mxfile>
